<?xml version="1.0" standalone="no"?>
<!DOCTYPE svg PUBLIC "-//W3C//DTD SVG 20010904//EN"
 "http://www.w3.org/TR/2001/REC-SVG-20010904/DTD/svg10.dtd">
<svg version="1.0" xmlns="http://www.w3.org/2000/svg"
 width="300.000000pt" height="300.000000pt" viewBox="0 0 300.000000 300.000000"
 preserveAspectRatio="xMidYMid meet">
<metadata>
Created by potrace 1.14, written by Peter Selinger 2001-2017
</metadata>
<g transform="translate(0.000000,300.000000) scale(0.100000,-0.100000)"
fill="#000000" stroke="none">
<path d="M662 2304 c3 -45 5 -47 47 -63 24 -9 53 -29 65 -44 21 -28 21 -33 21
-716 0 -781 6 -725 -86 -764 -48 -20 -49 -22 -49 -64 l0 -43 340 0 340 0 0 43
c0 42 -1 44 -49 64 -84 35 -85 38 -89 401 l-4 312 287 0 288 0 -5 -317 c-4
-230 -9 -325 -18 -345 -12 -25 -46 -47 -97 -63 -19 -5 -23 -13 -23 -51 l0 -44
341 0 340 0 -3 42 c-3 37 -7 45 -33 56 -50 22 -58 28 -79 56 -21 27 -21 37
-21 716 0 684 0 689 21 717 12 15 41 35 65 44 43 16 44 18 44 60 l0 44 -337 3
-338 2 0 -45 c0 -44 1 -45 50 -66 81 -35 82 -40 88 -356 l5 -273 -287 0 -286
0 0 218 c1 249 10 344 37 374 10 12 37 29 61 40 40 18 42 21 42 63 l0 45 -341
0 -340 0 3 -46z"/>
</g>
</svg>
